<?xml version="1.0" encoding="UTF-8" standalone="no"?>
<!DOCTYPE svg PUBLIC "-//W3C//DTD SVG 1.1//EN"
 "http://www.w3.org/Graphics/SVG/1.1/DTD/svg11.dtd">
<!-- Generated by graphviz version 9.0.0 (20230911.1827)
 -->
<!-- Title: G Pages: 1 -->
<svg width="670pt" height="630pt"
 viewBox="0.00 0.00 669.70 629.95" xmlns="http://www.w3.org/2000/svg" xmlns:xlink="http://www.w3.org/1999/xlink">
<g id="graph0" class="graph" transform="scale(1 1) rotate(0) translate(21.6 608.35)">
<title>G</title>
<polygon fill="#111111" stroke="none" points="-21.6,21.6 -21.6,-608.35 648.1,-608.35 648.1,21.6 -21.6,21.6"/>
<!-- App.tsx -->
<g id="node1" class="node">
<title>App.tsx</title>
<path fill="none" stroke="#cfffac" d="M256.58,-65.75C256.58,-65.75 211.42,-65.75 211.42,-65.75 207.46,-65.75 203.5,-61.79 203.5,-57.83 203.5,-57.83 203.5,-49.92 203.5,-49.92 203.5,-45.96 207.46,-42 211.42,-42 211.42,-42 256.58,-42 256.58,-42 260.54,-42 264.5,-45.96 264.5,-49.92 264.5,-49.92 264.5,-57.83 264.5,-57.83 264.5,-61.79 260.54,-65.75 256.58,-65.75"/>
<text text-anchor="middle" x="234" y="-48.45" font-family="Arial" font-size="14.00" fill="#cfffac">App.tsx</text>
</g>
<!-- context/AppContext.ts -->
<g id="node2" class="node">
<title>context/AppContext.ts</title>
<path fill="none" stroke="#c6c5fe" d="M300.08,-229.75C300.08,-229.75 167.92,-229.75 167.92,-229.75 163.96,-229.75 160,-225.79 160,-221.83 160,-221.83 160,-213.92 160,-213.92 160,-209.96 163.96,-206 167.92,-206 167.92,-206 300.08,-206 300.08,-206 304.04,-206 308,-209.96 308,-213.92 308,-213.92 308,-221.83 308,-221.83 308,-225.79 304.04,-229.75 300.08,-229.75"/>
<text text-anchor="middle" x="234" y="-212.45" font-family="Arial" font-size="14.00" fill="#c6c5fe">context/AppContext.ts</text>
</g>
<!-- hooks/ege.hook.ts -->
<g id="node3" class="node">
<title>hooks/ege.hook.ts</title>
<path fill="none" stroke="#cfffac" d="M470.96,-229.75C470.96,-229.75 361.29,-229.75 361.29,-229.75 357.33,-229.75 353.38,-225.79 353.38,-221.83 353.38,-221.83 353.38,-213.92 353.38,-213.92 353.38,-209.96 357.33,-206 361.29,-206 361.29,-206 470.96,-206 470.96,-206 474.92,-206 478.88,-209.96 478.88,-213.92 478.88,-213.92 478.88,-221.83 478.88,-221.83 478.88,-225.79 474.92,-229.75 470.96,-229.75"/>
<text text-anchor="middle" x="416.12" y="-212.45" font-family="Arial" font-size="14.00" fill="#cfffac">hooks/ege.hook.ts</text>
</g>
<!-- context/AppContext.ts&#45;&gt;hooks/ege.hook.ts -->
<g id="edge1" class="edge">
<title>context/AppContext.ts&#45;&gt;hooks/ege.hook.ts</title>
<path fill="none" stroke="#757575" d="M308.26,-217.88C319.25,-217.88 330.59,-217.88 341.58,-217.88"/>
<polygon fill="#757575" stroke="#757575" points="341.37,-221.38 351.37,-217.88 341.37,-214.38 341.37,-221.38"/>
</g>
<!-- hooks/person.hook.ts -->
<g id="node4" class="node">
<title>hooks/person.hook.ts</title>
<path fill="none" stroke="#cfffac" d="M480.33,-271.75C480.33,-271.75 351.92,-271.75 351.92,-271.75 347.96,-271.75 344,-267.79 344,-263.83 344,-263.83 344,-255.92 344,-255.92 344,-251.96 347.96,-248 351.92,-248 351.92,-248 480.33,-248 480.33,-248 484.29,-248 488.25,-251.96 488.25,-255.92 488.25,-255.92 488.25,-263.83 488.25,-263.83 488.25,-267.79 484.29,-271.75 480.33,-271.75"/>
<text text-anchor="middle" x="416.12" y="-254.45" font-family="Arial" font-size="14.00" fill="#cfffac">hooks/person.hook.ts</text>
</g>
<!-- context/AppContext.ts&#45;&gt;hooks/person.hook.ts -->
<g id="edge2" class="edge">
<title>context/AppContext.ts&#45;&gt;hooks/person.hook.ts</title>
<path fill="none" stroke="#757575" d="M288.07,-230.25C307.77,-234.84 330.33,-240.1 350.92,-244.9"/>
<polygon fill="#757575" stroke="#757575" points="350.12,-248.31 360.65,-247.17 351.71,-241.49 350.12,-248.31"/>
</g>
<!-- ts/search.ts -->
<g id="node5" class="node">
<title>ts/search.ts</title>
<path fill="none" stroke="#cfffac" d="M450.71,-187.75C450.71,-187.75 381.54,-187.75 381.54,-187.75 377.58,-187.75 373.62,-183.79 373.62,-179.83 373.62,-179.83 373.62,-171.92 373.62,-171.92 373.62,-167.96 377.58,-164 381.54,-164 381.54,-164 450.71,-164 450.71,-164 454.67,-164 458.62,-167.96 458.62,-171.92 458.62,-171.92 458.62,-179.83 458.62,-179.83 458.62,-183.79 454.67,-187.75 450.71,-187.75"/>
<text text-anchor="middle" x="416.12" y="-170.45" font-family="Arial" font-size="14.00" fill="#cfffac">ts/search.ts</text>
</g>
<!-- context/AppContext.ts&#45;&gt;ts/search.ts -->
<g id="edge3" class="edge">
<title>context/AppContext.ts&#45;&gt;ts/search.ts</title>
<path fill="none" stroke="#757575" d="M288.07,-205.5C311.43,-200.05 338.82,-193.67 362.17,-188.22"/>
<polygon fill="#757575" stroke="#757575" points="362.86,-191.66 371.8,-185.98 361.27,-184.84 362.86,-191.66"/>
</g>
<!-- context/index.ts -->
<g id="node6" class="node">
<title>context/index.ts</title>
<path fill="none" stroke="#c6c5fe" d="M108.96,-229.75C108.96,-229.75 15.04,-229.75 15.04,-229.75 11.08,-229.75 7.12,-225.79 7.12,-221.83 7.12,-221.83 7.12,-213.92 7.12,-213.92 7.12,-209.96 11.08,-206 15.04,-206 15.04,-206 108.96,-206 108.96,-206 112.92,-206 116.88,-209.96 116.88,-213.92 116.88,-213.92 116.88,-221.83 116.88,-221.83 116.88,-225.79 112.92,-229.75 108.96,-229.75"/>
<text text-anchor="middle" x="62" y="-212.45" font-family="Arial" font-size="14.00" fill="#c6c5fe">context/index.ts</text>
</g>
<!-- context/index.ts&#45;&gt;context/AppContext.ts -->
<g id="edge4" class="edge">
<title>context/index.ts&#45;&gt;context/AppContext.ts</title>
<path fill="none" stroke="#757575" d="M117.26,-217.88C127.18,-217.88 137.74,-217.88 148.3,-217.88"/>
<polygon fill="#757575" stroke="#757575" points="148.21,-221.38 158.21,-217.88 148.21,-214.38 148.21,-221.38"/>
</g>
<!-- hooks/index.ts -->
<g id="node7" class="node">
<title>hooks/index.ts</title>
<path fill="none" stroke="#c6c5fe" d="M277.21,-292.75C277.21,-292.75 190.79,-292.75 190.79,-292.75 186.83,-292.75 182.88,-288.79 182.88,-284.83 182.88,-284.83 182.88,-276.92 182.88,-276.92 182.88,-272.96 186.83,-269 190.79,-269 190.79,-269 277.21,-269 277.21,-269 281.17,-269 285.12,-272.96 285.12,-276.92 285.12,-276.92 285.12,-284.83 285.12,-284.83 285.12,-288.79 281.17,-292.75 277.21,-292.75"/>
<text text-anchor="middle" x="234" y="-275.45" font-family="Arial" font-size="14.00" fill="#c6c5fe">hooks/index.ts</text>
</g>
<!-- hooks/index.ts&#45;&gt;hooks/ege.hook.ts -->
<g id="edge5" class="edge">
<title>hooks/index.ts&#45;&gt;hooks/ege.hook.ts</title>
<path fill="none" stroke="#757575" d="M264.83,-268.63C286.61,-259.88 316.92,-248.07 344,-238.88 349.35,-237.06 354.95,-235.25 360.57,-233.49"/>
<polygon fill="#757575" stroke="#757575" points="361.33,-236.92 369.87,-230.65 359.28,-230.23 361.33,-236.92"/>
</g>
<!-- hooks/index.ts&#45;&gt;hooks/person.hook.ts -->
<g id="edge6" class="edge">
<title>hooks/index.ts&#45;&gt;hooks/person.hook.ts</title>
<path fill="none" stroke="#757575" d="M285.17,-275.03C299.89,-273.31 316.39,-271.39 332.56,-269.5"/>
<polygon fill="#757575" stroke="#757575" points="332.65,-273.01 342.18,-268.38 331.84,-266.06 332.65,-273.01"/>
</g>
<!-- hooks/search.hook.ts -->
<g id="node8" class="node">
<title>hooks/search.hook.ts</title>
<path fill="none" stroke="#cfffac" d="M479.96,-355.75C479.96,-355.75 352.29,-355.75 352.29,-355.75 348.33,-355.75 344.38,-351.79 344.38,-347.83 344.38,-347.83 344.38,-339.92 344.38,-339.92 344.38,-335.96 348.33,-332 352.29,-332 352.29,-332 479.96,-332 479.96,-332 483.92,-332 487.88,-335.96 487.88,-339.92 487.88,-339.92 487.88,-347.83 487.88,-347.83 487.88,-351.79 483.92,-355.75 479.96,-355.75"/>
<text text-anchor="middle" x="416.12" y="-338.45" font-family="Arial" font-size="14.00" fill="#cfffac">hooks/search.hook.ts</text>
</g>
<!-- hooks/index.ts&#45;&gt;hooks/search.hook.ts -->
<g id="edge7" class="edge">
<title>hooks/index.ts&#45;&gt;hooks/search.hook.ts</title>
<path fill="none" stroke="#757575" d="M284.28,-293.24C292.32,-295.77 300.48,-298.66 308,-301.88 325.03,-309.16 326.99,-315.53 344,-322.88 348.07,-324.63 352.34,-326.3 356.67,-327.86"/>
<polygon fill="#757575" stroke="#757575" points="355.47,-331.15 366.07,-331.06 357.73,-324.53 355.47,-331.15"/>
</g>
<!-- hooks/table.hook.ts -->
<g id="node9" class="node">
<title>hooks/table.hook.ts</title>
<path fill="none" stroke="#cfffac" d="M474.33,-313.75C474.33,-313.75 357.92,-313.75 357.92,-313.75 353.96,-313.75 350,-309.79 350,-305.83 350,-305.83 350,-297.92 350,-297.92 350,-293.96 353.96,-290 357.92,-290 357.92,-290 474.33,-290 474.33,-290 478.29,-290 482.25,-293.96 482.25,-297.92 482.25,-297.92 482.25,-305.83 482.25,-305.83 482.25,-309.79 478.29,-313.75 474.33,-313.75"/>
<text text-anchor="middle" x="416.12" y="-296.45" font-family="Arial" font-size="14.00" fill="#cfffac">hooks/table.hook.ts</text>
</g>
<!-- hooks/index.ts&#45;&gt;hooks/table.hook.ts -->
<g id="edge8" class="edge">
<title>hooks/index.ts&#45;&gt;hooks/table.hook.ts</title>
<path fill="none" stroke="#757575" d="M285.17,-286.72C301.65,-288.65 320.35,-290.83 338.34,-292.92"/>
<polygon fill="#757575" stroke="#757575" points="337.87,-296.39 348.21,-294.07 338.68,-289.44 337.87,-296.39"/>
</g>
<!-- index.scss -->
<g id="node10" class="node">
<title>index.scss</title>
<path fill="none" stroke="#cfffac" d="M265.58,-23.75C265.58,-23.75 202.42,-23.75 202.42,-23.75 198.46,-23.75 194.5,-19.79 194.5,-15.83 194.5,-15.83 194.5,-7.92 194.5,-7.92 194.5,-3.96 198.46,0 202.42,0 202.42,0 265.58,0 265.58,0 269.54,0 273.5,-3.96 273.5,-7.92 273.5,-7.92 273.5,-15.83 273.5,-15.83 273.5,-19.79 269.54,-23.75 265.58,-23.75"/>
<text text-anchor="middle" x="234" y="-6.45" font-family="Arial" font-size="14.00" fill="#cfffac">index.scss</text>
</g>
<!-- index.tsx -->
<g id="node11" class="node">
<title>index.tsx</title>
<path fill="none" stroke="#c6c5fe" d="M88.71,-44.75C88.71,-44.75 35.29,-44.75 35.29,-44.75 31.33,-44.75 27.38,-40.79 27.38,-36.83 27.38,-36.83 27.38,-28.92 27.38,-28.92 27.38,-24.96 31.33,-21 35.29,-21 35.29,-21 88.71,-21 88.71,-21 92.67,-21 96.62,-24.96 96.62,-28.92 96.62,-28.92 96.62,-36.83 96.62,-36.83 96.62,-40.79 92.67,-44.75 88.71,-44.75"/>
<text text-anchor="middle" x="62" y="-27.45" font-family="Arial" font-size="14.00" fill="#c6c5fe">index.tsx</text>
</g>
<!-- index.tsx&#45;&gt;App.tsx -->
<g id="edge9" class="edge">
<title>index.tsx&#45;&gt;App.tsx</title>
<path fill="none" stroke="#757575" d="M96.99,-37.07C124.25,-40.44 162.6,-45.18 191.63,-48.76"/>
<polygon fill="#757575" stroke="#757575" points="191.19,-52.24 201.55,-49.99 192.05,-45.29 191.19,-52.24"/>
</g>
<!-- index.tsx&#45;&gt;index.scss -->
<g id="edge10" class="edge">
<title>index.tsx&#45;&gt;index.scss</title>
<path fill="none" stroke="#757575" d="M96.99,-28.68C121.61,-25.64 155.27,-21.48 182.95,-18.06"/>
<polygon fill="#757575" stroke="#757575" points="183.01,-21.58 192.51,-16.88 182.15,-14.63 183.01,-21.58"/>
</g>
<!-- react&#45;app&#45;env.d.ts -->
<g id="node12" class="node">
<title>react&#45;app&#45;env.d.ts</title>
<path fill="none" stroke="#cfffac" d="M116.08,-355.75C116.08,-355.75 7.92,-355.75 7.92,-355.75 3.96,-355.75 0,-351.79 0,-347.83 0,-347.83 0,-339.92 0,-339.92 0,-335.96 3.96,-332 7.92,-332 7.92,-332 116.08,-332 116.08,-332 120.04,-332 124,-335.96 124,-339.92 124,-339.92 124,-347.83 124,-347.83 124,-351.79 120.04,-355.75 116.08,-355.75"/>
<text text-anchor="middle" x="62" y="-338.45" font-family="Arial" font-size="14.00" fill="#cfffac">react&#45;app&#45;env.d.ts</text>
</g>
<!-- ts/bvi.ts -->
<g id="node13" class="node">
<title>ts/bvi.ts</title>
<path fill="none" stroke="#cfffac" d="M439.08,-27.75C439.08,-27.75 393.17,-27.75 393.17,-27.75 389.21,-27.75 385.25,-23.79 385.25,-19.83 385.25,-19.83 385.25,-11.92 385.25,-11.92 385.25,-7.96 389.21,-4 393.17,-4 393.17,-4 439.08,-4 439.08,-4 443.04,-4 447,-7.96 447,-11.92 447,-11.92 447,-19.83 447,-19.83 447,-23.79 443.04,-27.75 439.08,-27.75"/>
<text text-anchor="middle" x="416.12" y="-10.45" font-family="Arial" font-size="14.00" fill="#cfffac">ts/bvi.ts</text>
</g>
<!-- ts/colors.ts -->
<g id="node14" class="node">
<title>ts/colors.ts</title>
<path fill="none" stroke="#c6c5fe" d="M448.46,-107.75C448.46,-107.75 383.79,-107.75 383.79,-107.75 379.83,-107.75 375.88,-103.79 375.88,-99.83 375.88,-99.83 375.88,-91.92 375.88,-91.92 375.88,-87.96 379.83,-84 383.79,-84 383.79,-84 448.46,-84 448.46,-84 452.42,-84 456.38,-87.96 456.38,-91.92 456.38,-91.92 456.38,-99.83 456.38,-99.83 456.38,-103.79 452.42,-107.75 448.46,-107.75"/>
<text text-anchor="middle" x="416.12" y="-90.45" font-family="Arial" font-size="14.00" fill="#c6c5fe">ts/colors.ts</text>
</g>
<!-- ts/constants.ts -->
<g id="node15" class="node">
<title>ts/constants.ts</title>
<path fill="none" stroke="#cfffac" d="M618.58,-86.75C618.58,-86.75 532.17,-86.75 532.17,-86.75 528.21,-86.75 524.25,-82.79 524.25,-78.83 524.25,-78.83 524.25,-70.92 524.25,-70.92 524.25,-66.96 528.21,-63 532.17,-63 532.17,-63 618.58,-63 618.58,-63 622.54,-63 626.5,-66.96 626.5,-70.92 626.5,-70.92 626.5,-78.83 626.5,-78.83 626.5,-82.79 622.54,-86.75 618.58,-86.75"/>
<text text-anchor="middle" x="575.38" y="-69.45" font-family="Arial" font-size="14.00" fill="#cfffac">ts/constants.ts</text>
</g>
<!-- ts/colors.ts&#45;&gt;ts/constants.ts -->
<g id="edge11" class="edge">
<title>ts/colors.ts&#45;&gt;ts/constants.ts</title>
<path fill="none" stroke="#757575" d="M456.81,-90.58C473.76,-88.31 493.95,-85.61 512.78,-83.1"/>
<polygon fill="#757575" stroke="#757575" points="513.02,-86.6 522.47,-81.81 512.1,-79.66 513.02,-86.6"/>
</g>
<!-- ts/diploma.ts -->
<g id="node16" class="node">
<title>ts/diploma.ts</title>
<path fill="none" stroke="#cfffac" d="M613.71,-137.75C613.71,-137.75 537.04,-137.75 537.04,-137.75 533.08,-137.75 529.12,-133.79 529.12,-129.83 529.12,-129.83 529.12,-121.92 529.12,-121.92 529.12,-117.96 533.08,-114 537.04,-114 537.04,-114 613.71,-114 613.71,-114 617.67,-114 621.62,-117.96 621.62,-121.92 621.62,-121.92 621.62,-129.83 621.62,-129.83 621.62,-133.79 617.67,-137.75 613.71,-137.75"/>
<text text-anchor="middle" x="575.38" y="-120.45" font-family="Arial" font-size="14.00" fill="#cfffac">ts/diploma.ts</text>
</g>
<!-- ts/colors.ts&#45;&gt;ts/diploma.ts -->
<g id="edge12" class="edge">
<title>ts/colors.ts&#45;&gt;ts/diploma.ts</title>
<path fill="none" stroke="#757575" d="M456.81,-103.45C475.22,-106.96 497.45,-111.2 517.6,-115.04"/>
<polygon fill="#757575" stroke="#757575" points="516.89,-118.47 527.37,-116.91 518.21,-111.6 516.89,-118.47"/>
</g>
<!-- ts/index.ts -->
<g id="node17" class="node">
<title>ts/index.ts</title>
<path fill="none" stroke="#c6c5fe" d="M264.46,-107.75C264.46,-107.75 203.54,-107.75 203.54,-107.75 199.58,-107.75 195.62,-103.79 195.62,-99.83 195.62,-99.83 195.62,-91.92 195.62,-91.92 195.62,-87.96 199.58,-84 203.54,-84 203.54,-84 264.46,-84 264.46,-84 268.42,-84 272.38,-87.96 272.38,-91.92 272.38,-91.92 272.38,-99.83 272.38,-99.83 272.38,-103.79 268.42,-107.75 264.46,-107.75"/>
<text text-anchor="middle" x="234" y="-90.45" font-family="Arial" font-size="14.00" fill="#c6c5fe">ts/index.ts</text>
</g>
<!-- ts/index.ts&#45;&gt;ts/search.ts -->
<g id="edge17" class="edge">
<title>ts/index.ts&#45;&gt;ts/search.ts</title>
<path fill="none" stroke="#757575" d="M258.04,-108.21C279.87,-119.68 313.72,-136.89 344,-149.88 351.81,-153.23 360.22,-156.54 368.42,-159.63"/>
<polygon fill="#757575" stroke="#757575" points="366.99,-162.84 377.59,-163.01 369.42,-156.27 366.99,-162.84"/>
</g>
<!-- ts/index.ts&#45;&gt;ts/bvi.ts -->
<g id="edge13" class="edge">
<title>ts/index.ts&#45;&gt;ts/bvi.ts</title>
<path fill="none" stroke="#757575" d="M272.71,-88.57C284.47,-85.38 297.19,-80.94 308,-74.88 326.93,-64.26 325.45,-53.15 344,-41.88 353.24,-36.26 363.88,-31.57 374.08,-27.79"/>
<polygon fill="#757575" stroke="#757575" points="375.14,-31.12 383.44,-24.54 372.85,-24.51 375.14,-31.12"/>
</g>
<!-- ts/index.ts&#45;&gt;ts/colors.ts -->
<g id="edge14" class="edge">
<title>ts/index.ts&#45;&gt;ts/colors.ts</title>
<path fill="none" stroke="#757575" d="M272.76,-95.88C299.35,-95.88 335.26,-95.88 364.35,-95.88"/>
<polygon fill="#757575" stroke="#757575" points="364.03,-99.38 374.03,-95.88 364.03,-92.38 364.03,-99.38"/>
</g>
<!-- ts/index.ts&#45;&gt;ts/constants.ts -->
<g id="edge15" class="edge">
<title>ts/index.ts&#45;&gt;ts/constants.ts</title>
<path fill="none" stroke="#757575" d="M272.83,-86.75C293.68,-82.18 320.12,-77.15 344,-74.88 400.89,-69.44 466.05,-70.08 512.52,-71.69"/>
<polygon fill="#757575" stroke="#757575" points="512.27,-75.19 522.4,-72.07 512.54,-68.19 512.27,-75.19"/>
</g>
<!-- ts/index.ts&#45;&gt;ts/diploma.ts -->
<g id="edge16" class="edge">
<title>ts/index.ts&#45;&gt;ts/diploma.ts</title>
<path fill="none" stroke="#757575" d="M272.87,-104.63C293.73,-109.09 320.16,-114.13 344,-116.88 402.83,-123.65 470.62,-125.6 517.35,-126.04"/>
<polygon fill="#757575" stroke="#757575" points="517.22,-129.54 527.25,-126.11 517.27,-122.54 517.22,-129.54"/>
</g>
<!-- ui/Footer.tsx -->
<g id="node18" class="node">
<title>ui/Footer.tsx</title>
<path fill="none" stroke="#cfffac" d="M270.83,-586.75C270.83,-586.75 197.17,-586.75 197.17,-586.75 193.21,-586.75 189.25,-582.79 189.25,-578.83 189.25,-578.83 189.25,-570.92 189.25,-570.92 189.25,-566.96 193.21,-563 197.17,-563 197.17,-563 270.83,-563 270.83,-563 274.79,-563 278.75,-566.96 278.75,-570.92 278.75,-570.92 278.75,-578.83 278.75,-578.83 278.75,-582.79 274.79,-586.75 270.83,-586.75"/>
<text text-anchor="middle" x="234" y="-569.45" font-family="Arial" font-size="14.00" fill="#cfffac">ui/Footer.tsx</text>
</g>
<!-- ui/FullTable.tsx -->
<g id="node19" class="node">
<title>ui/FullTable.tsx</title>
<path fill="none" stroke="#cfffac" d="M278.71,-544.75C278.71,-544.75 189.29,-544.75 189.29,-544.75 185.33,-544.75 181.38,-540.79 181.38,-536.83 181.38,-536.83 181.38,-528.92 181.38,-528.92 181.38,-524.96 185.33,-521 189.29,-521 189.29,-521 278.71,-521 278.71,-521 282.67,-521 286.62,-524.96 286.62,-528.92 286.62,-528.92 286.62,-536.83 286.62,-536.83 286.62,-540.79 282.67,-544.75 278.71,-544.75"/>
<text text-anchor="middle" x="234" y="-527.45" font-family="Arial" font-size="14.00" fill="#cfffac">ui/FullTable.tsx</text>
</g>
<!-- ui/Links.tsx -->
<g id="node20" class="node">
<title>ui/Links.tsx</title>
<path fill="none" stroke="#cfffac" d="M267.46,-502.75C267.46,-502.75 200.54,-502.75 200.54,-502.75 196.58,-502.75 192.62,-498.79 192.62,-494.83 192.62,-494.83 192.62,-486.92 192.62,-486.92 192.62,-482.96 196.58,-479 200.54,-479 200.54,-479 267.46,-479 267.46,-479 271.42,-479 275.38,-482.96 275.38,-486.92 275.38,-486.92 275.38,-494.83 275.38,-494.83 275.38,-498.79 271.42,-502.75 267.46,-502.75"/>
<text text-anchor="middle" x="234" y="-485.45" font-family="Arial" font-size="14.00" fill="#cfffac">ui/Links.tsx</text>
</g>
<!-- ui/MakeSelector.tsx -->
<g id="node21" class="node">
<title>ui/MakeSelector.tsx</title>
<path fill="none" stroke="#cfffac" d="M292.96,-460.75C292.96,-460.75 175.04,-460.75 175.04,-460.75 171.08,-460.75 167.12,-456.79 167.12,-452.83 167.12,-452.83 167.12,-444.92 167.12,-444.92 167.12,-440.96 171.08,-437 175.04,-437 175.04,-437 292.96,-437 292.96,-437 296.92,-437 300.88,-440.96 300.88,-444.92 300.88,-444.92 300.88,-452.83 300.88,-452.83 300.88,-456.79 296.92,-460.75 292.96,-460.75"/>
<text text-anchor="middle" x="234" y="-443.45" font-family="Arial" font-size="14.00" fill="#cfffac">ui/MakeSelector.tsx</text>
</g>
<!-- ui/Olymps.tsx -->
<g id="node22" class="node">
<title>ui/Olymps.tsx</title>
<path fill="none" stroke="#cfffac" d="M275.33,-418.75C275.33,-418.75 192.67,-418.75 192.67,-418.75 188.71,-418.75 184.75,-414.79 184.75,-410.83 184.75,-410.83 184.75,-402.92 184.75,-402.92 184.75,-398.96 188.71,-395 192.67,-395 192.67,-395 275.33,-395 275.33,-395 279.29,-395 283.25,-398.96 283.25,-402.92 283.25,-402.92 283.25,-410.83 283.25,-410.83 283.25,-414.79 279.29,-418.75 275.33,-418.75"/>
<text text-anchor="middle" x="234" y="-401.45" font-family="Arial" font-size="14.00" fill="#cfffac">ui/Olymps.tsx</text>
</g>
<!-- ui/SearchForm.tsx -->
<g id="node23" class="node">
<title>ui/SearchForm.tsx</title>
<path fill="none" stroke="#cfffac" d="M289.21,-376.75C289.21,-376.75 178.79,-376.75 178.79,-376.75 174.83,-376.75 170.88,-372.79 170.88,-368.83 170.88,-368.83 170.88,-360.92 170.88,-360.92 170.88,-356.96 174.83,-353 178.79,-353 178.79,-353 289.21,-353 289.21,-353 293.17,-353 297.12,-356.96 297.12,-360.92 297.12,-360.92 297.12,-368.83 297.12,-368.83 297.12,-372.79 293.17,-376.75 289.21,-376.75"/>
<text text-anchor="middle" x="234" y="-359.45" font-family="Arial" font-size="14.00" fill="#cfffac">ui/SearchForm.tsx</text>
</g>
<!-- ui/TableHead.tsx -->
<g id="node24" class="node">
<title>ui/TableHead.tsx</title>
<path fill="none" stroke="#cfffac" d="M283.96,-334.75C283.96,-334.75 184.04,-334.75 184.04,-334.75 180.08,-334.75 176.12,-330.79 176.12,-326.83 176.12,-326.83 176.12,-318.92 176.12,-318.92 176.12,-314.96 180.08,-311 184.04,-311 184.04,-311 283.96,-311 283.96,-311 287.92,-311 291.88,-314.96 291.88,-318.92 291.88,-318.92 291.88,-326.83 291.88,-326.83 291.88,-330.79 287.92,-334.75 283.96,-334.75"/>
<text text-anchor="middle" x="234" y="-317.45" font-family="Arial" font-size="14.00" fill="#cfffac">ui/TableHead.tsx</text>
</g>
<!-- ui/index.ts -->
<g id="node25" class="node">
<title>ui/index.ts</title>
<path fill="none" stroke="#c6c5fe" d="M92.46,-460.75C92.46,-460.75 31.54,-460.75 31.54,-460.75 27.58,-460.75 23.62,-456.79 23.62,-452.83 23.62,-452.83 23.62,-444.92 23.62,-444.92 23.62,-440.96 27.58,-437 31.54,-437 31.54,-437 92.46,-437 92.46,-437 96.42,-437 100.38,-440.96 100.38,-444.92 100.38,-444.92 100.38,-452.83 100.38,-452.83 100.38,-456.79 96.42,-460.75 92.46,-460.75"/>
<text text-anchor="middle" x="62" y="-443.45" font-family="Arial" font-size="14.00" fill="#c6c5fe">ui/index.ts</text>
</g>
<!-- ui/index.ts&#45;&gt;ui/Footer.tsx -->
<g id="edge18" class="edge">
<title>ui/index.ts&#45;&gt;ui/Footer.tsx</title>
<path fill="none" stroke="#757575" d="M70.78,-460.93C85.52,-482.79 119.65,-529 160,-553.88 165.61,-557.33 171.81,-560.24 178.16,-562.68"/>
<polygon fill="#757575" stroke="#757575" points="176.87,-565.94 187.47,-565.88 179.14,-559.32 176.87,-565.94"/>
</g>
<!-- ui/index.ts&#45;&gt;ui/FullTable.tsx -->
<g id="edge19" class="edge">
<title>ui/index.ts&#45;&gt;ui/FullTable.tsx</title>
<path fill="none" stroke="#757575" d="M78.63,-461.13C97.13,-475.12 129.31,-497.87 160,-511.88 163.94,-513.67 168.06,-515.35 172.27,-516.92"/>
<polygon fill="#757575" stroke="#757575" points="170.78,-520.11 181.38,-520.08 173.08,-513.49 170.78,-520.11"/>
</g>
<!-- ui/index.ts&#45;&gt;ui/Links.tsx -->
<g id="edge20" class="edge">
<title>ui/index.ts&#45;&gt;ui/Links.tsx</title>
<path fill="none" stroke="#757575" d="M100.73,-458.2C124.42,-464.05 155.29,-471.68 181.25,-478.09"/>
<polygon fill="#757575" stroke="#757575" points="180.39,-481.48 190.94,-480.48 182.07,-474.69 180.39,-481.48"/>
</g>
<!-- ui/index.ts&#45;&gt;ui/MakeSelector.tsx -->
<g id="edge21" class="edge">
<title>ui/index.ts&#45;&gt;ui/MakeSelector.tsx</title>
<path fill="none" stroke="#757575" d="M100.73,-448.88C116.84,-448.88 136.28,-448.88 155.24,-448.88"/>
<polygon fill="#757575" stroke="#757575" points="155.11,-452.38 165.11,-448.88 155.11,-445.38 155.11,-452.38"/>
</g>
<!-- ui/index.ts&#45;&gt;ui/Olymps.tsx -->
<g id="edge22" class="edge">
<title>ui/index.ts&#45;&gt;ui/Olymps.tsx</title>
<path fill="none" stroke="#757575" d="M100.73,-439.55C122.11,-434.27 149.33,-427.55 173.52,-421.57"/>
<polygon fill="#757575" stroke="#757575" points="174.05,-425.05 182.92,-419.25 172.37,-418.25 174.05,-425.05"/>
</g>
<!-- ui/index.ts&#45;&gt;ui/SearchForm.tsx -->
<g id="edge23" class="edge">
<title>ui/index.ts&#45;&gt;ui/SearchForm.tsx</title>
<path fill="none" stroke="#757575" d="M78.63,-436.62C97.13,-422.63 129.31,-399.88 160,-385.88 163.94,-384.08 168.06,-382.4 172.27,-380.83"/>
<polygon fill="#757575" stroke="#757575" points="173.08,-384.26 181.38,-377.67 170.78,-377.64 173.08,-384.26"/>
</g>
<!-- ui/index.ts&#45;&gt;ui/TableHead.tsx -->
<g id="edge24" class="edge">
<title>ui/index.ts&#45;&gt;ui/TableHead.tsx</title>
<path fill="none" stroke="#757575" d="M70.78,-436.82C85.52,-414.96 119.65,-368.75 160,-343.88 162.41,-342.39 164.92,-341.01 167.51,-339.72"/>
<polygon fill="#757575" stroke="#757575" points="168.65,-343.04 176.4,-335.82 165.84,-336.63 168.65,-343.04"/>
</g>
</g>
</svg>
